<?xml version="1.0" encoding="UTF-8"?>
<svg id="Calque_2" data-name="Calque 2" xmlns="http://www.w3.org/2000/svg" viewBox="0 0 512 505.82">
  <defs>
    <style>
      .cls-1 {
        fill: #c22e19;
      }

      .cls-2 {
        fill: #ef7b22;
      }

      .cls-3 {
        fill: #7e9445;
      }

      .cls-4 {
        fill: #f1ddbe;
      }
    </style>
  </defs>
  <g id="Calque_1-2" data-name="Calque 1">
    <rect class="cls-4" width="512" height="505.82"/>
    <g>
      <path class="cls-1" d="M181.05,225.98c-14.89.36-26.3-9.87-26.23-24.33,2.33-14.68-6.32-96.22,6.82-106.31,7.87-9.94,30.28-10.53,37.88,0,7.16,7.56,6.26,22.26,6.16,32.53h4.82c-.38-25.8,10.45-39.48,33.46-40.2,24.85-.33,35.21,17.08,35.34,40.2h4.82c-1.09-22.87,12.65-40.34,34.53-40.2,11.6,0,20.12,2.74,25.56,8.2,12.92,13.43,12.32,33.56,12.98,52.89-1.9,13.36,5.61,60.82-7.09,70.21-8.79,9.39-29.03,9.31-37.88,0-18.68-12.46,6.47-85.28-19.27-84.23-11.93.06-11.79,10.59-12.32,20.63,0,0,0,46.28,0,46.28,1.29,23.1-29.49,31.88-44.3,17.32-15.42-14.82-1.39-61.05-9.5-78.94-2.59-7.33-17.31-6.97-19.14.53-4.05,8.96-1.17,50.72-2.01,61.09.03,14.17-9.69,24.68-24.63,24.33Z"/>
      <path class="cls-2" d="M421.35,255.12c-.98,216.29-329.76,216.16-330.7,0h330.7Z"/>
      <path class="cls-3" d="M330.53,98.24c23.39,1.84,33.42,21.37,41.33,40.91,0,0,10.18-22.66-2.47-37.34-13.3-15.43-21.76-17.71-30.6-15.93-17.39,3.49-8.26,12.36-8.26,12.36Z"/>
    </g>
  </g>
</svg>